<mxfile host="app.diagrams.net" modified="2021-08-30T02:45:02.042Z" agent="5.0 (X11)" etag="Nezin0qA3RHSKCIO_IJV" version="15.0.3" type="github" pages="4">
  <diagram id="czYuIRbQ6l2w0m3v4Nq1" name="MER">
    <mxGraphModel dx="1422" dy="791" grid="1" gridSize="10" guides="1" tooltips="1" connect="1" arrows="1" fold="1" page="1" pageScale="1" pageWidth="850" pageHeight="1100" math="0" shadow="0">
      <root>
        <mxCell id="0" />
        <mxCell id="1" parent="0" />
        <mxCell id="hlGLuwuzqGQmsSktjfiK-1" value="vaga_geral" style="shape=table;startSize=30;container=1;collapsible=1;childLayout=tableLayout;fixedRows=1;rowLines=0;fontStyle=1;align=center;resizeLast=1;" parent="1" vertex="1">
          <mxGeometry x="460" y="400" width="320" height="220" as="geometry">
            <mxRectangle x="120" y="120" width="100" height="30" as="alternateBounds" />
          </mxGeometry>
        </mxCell>
        <mxCell id="hlGLuwuzqGQmsSktjfiK-2" value="" style="shape=partialRectangle;collapsible=0;dropTarget=0;pointerEvents=0;fillColor=none;points=[[0,0.5],[1,0.5]];portConstraint=eastwest;top=0;left=0;right=0;bottom=1;" parent="hlGLuwuzqGQmsSktjfiK-1" vertex="1">
          <mxGeometry y="30" width="320" height="30" as="geometry" />
        </mxCell>
        <mxCell id="hlGLuwuzqGQmsSktjfiK-3" value="PK" style="shape=partialRectangle;overflow=hidden;connectable=0;fillColor=none;top=0;left=0;bottom=0;right=0;fontStyle=1;" parent="hlGLuwuzqGQmsSktjfiK-2" vertex="1">
          <mxGeometry width="30" height="30" as="geometry" />
        </mxCell>
        <mxCell id="hlGLuwuzqGQmsSktjfiK-4" value="URL_geral  var_char NOT NULL " style="shape=partialRectangle;overflow=hidden;connectable=0;fillColor=none;top=0;left=0;bottom=0;right=0;align=left;spacingLeft=6;fontStyle=5;" parent="hlGLuwuzqGQmsSktjfiK-2" vertex="1">
          <mxGeometry x="30" width="290" height="30" as="geometry" />
        </mxCell>
        <mxCell id="hlGLuwuzqGQmsSktjfiK-5" value="" style="shape=partialRectangle;collapsible=0;dropTarget=0;pointerEvents=0;fillColor=none;points=[[0,0.5],[1,0.5]];portConstraint=eastwest;top=0;left=0;right=0;bottom=0;" parent="hlGLuwuzqGQmsSktjfiK-1" vertex="1">
          <mxGeometry y="60" width="320" height="30" as="geometry" />
        </mxCell>
        <mxCell id="hlGLuwuzqGQmsSktjfiK-6" value="" style="shape=partialRectangle;overflow=hidden;connectable=0;fillColor=none;top=0;left=0;bottom=0;right=0;" parent="hlGLuwuzqGQmsSktjfiK-5" vertex="1">
          <mxGeometry width="30" height="30" as="geometry" />
        </mxCell>
        <mxCell id="hlGLuwuzqGQmsSktjfiK-7" value="" style="shape=partialRectangle;overflow=hidden;connectable=0;fillColor=none;top=0;left=0;bottom=0;right=0;align=left;spacingLeft=6;" parent="hlGLuwuzqGQmsSktjfiK-5" vertex="1">
          <mxGeometry x="30" width="290" height="30" as="geometry" />
        </mxCell>
        <mxCell id="hlGLuwuzqGQmsSktjfiK-8" value="geral_desc var_charNOT NULL" style="shape=partialRectangle;overflow=hidden;connectable=0;fillColor=none;top=0;left=0;bottom=0;right=0;align=left;spacingLeft=6;" parent="1" vertex="1">
          <mxGeometry x="490" y="493" width="290" height="30" as="geometry" />
        </mxCell>
        <mxCell id="hlGLuwuzqGQmsSktjfiK-9" value="geral_titulo char(50) NOT NULL" style="shape=partialRectangle;overflow=hidden;connectable=0;fillColor=none;top=0;left=0;bottom=0;right=0;align=left;spacingLeft=6;" parent="1" vertex="1">
          <mxGeometry x="490" y="521" width="290" height="30" as="geometry" />
        </mxCell>
        <mxCell id="hlGLuwuzqGQmsSktjfiK-10" value="geral_id int not_null" style="shape=partialRectangle;overflow=hidden;connectable=0;fillColor=none;top=0;left=0;bottom=0;right=0;align=left;spacingLeft=6;" parent="1" vertex="1">
          <mxGeometry x="490" y="467" width="290" height="30" as="geometry" />
        </mxCell>
        <mxCell id="hlGLuwuzqGQmsSktjfiK-11" value="vaga_formatada" style="shape=table;startSize=30;container=1;collapsible=1;childLayout=tableLayout;fixedRows=1;rowLines=0;fontStyle=1;align=center;resizeLast=1;" parent="1" vertex="1">
          <mxGeometry x="460" y="148" width="320" height="192" as="geometry">
            <mxRectangle x="120" y="120" width="100" height="30" as="alternateBounds" />
          </mxGeometry>
        </mxCell>
        <mxCell id="hlGLuwuzqGQmsSktjfiK-12" value="" style="shape=partialRectangle;collapsible=0;dropTarget=0;pointerEvents=0;fillColor=none;points=[[0,0.5],[1,0.5]];portConstraint=eastwest;top=0;left=0;right=0;bottom=1;" parent="hlGLuwuzqGQmsSktjfiK-11" vertex="1">
          <mxGeometry y="30" width="320" height="30" as="geometry" />
        </mxCell>
        <mxCell id="hlGLuwuzqGQmsSktjfiK-13" value="PK" style="shape=partialRectangle;overflow=hidden;connectable=0;fillColor=none;top=0;left=0;bottom=0;right=0;fontStyle=1;" parent="hlGLuwuzqGQmsSktjfiK-12" vertex="1">
          <mxGeometry width="30" height="30" as="geometry" />
        </mxCell>
        <mxCell id="hlGLuwuzqGQmsSktjfiK-14" value="URL_formatada  var_char NOT NULL " style="shape=partialRectangle;overflow=hidden;connectable=0;fillColor=none;top=0;left=0;bottom=0;right=0;align=left;spacingLeft=6;fontStyle=5;" parent="hlGLuwuzqGQmsSktjfiK-12" vertex="1">
          <mxGeometry x="30" width="290" height="30" as="geometry" />
        </mxCell>
        <mxCell id="hlGLuwuzqGQmsSktjfiK-15" value="" style="shape=partialRectangle;collapsible=0;dropTarget=0;pointerEvents=0;fillColor=none;points=[[0,0.5],[1,0.5]];portConstraint=eastwest;top=0;left=0;right=0;bottom=0;" parent="hlGLuwuzqGQmsSktjfiK-11" vertex="1">
          <mxGeometry y="60" width="320" height="30" as="geometry" />
        </mxCell>
        <mxCell id="hlGLuwuzqGQmsSktjfiK-16" value="" style="shape=partialRectangle;overflow=hidden;connectable=0;fillColor=none;top=0;left=0;bottom=0;right=0;" parent="hlGLuwuzqGQmsSktjfiK-15" vertex="1">
          <mxGeometry width="30" height="30" as="geometry" />
        </mxCell>
        <mxCell id="hlGLuwuzqGQmsSktjfiK-17" value="" style="shape=partialRectangle;overflow=hidden;connectable=0;fillColor=none;top=0;left=0;bottom=0;right=0;align=left;spacingLeft=6;" parent="hlGLuwuzqGQmsSktjfiK-15" vertex="1">
          <mxGeometry x="30" width="290" height="30" as="geometry" />
        </mxCell>
        <mxCell id="hlGLuwuzqGQmsSktjfiK-18" value="format_desc var_charNOT NULL" style="shape=partialRectangle;overflow=hidden;connectable=0;fillColor=none;top=0;left=0;bottom=0;right=0;align=left;spacingLeft=6;" parent="1" vertex="1">
          <mxGeometry x="490" y="241" width="290" height="30" as="geometry" />
        </mxCell>
        <mxCell id="hlGLuwuzqGQmsSktjfiK-19" value="format_titulo char(50) NOT NULL" style="shape=partialRectangle;overflow=hidden;connectable=0;fillColor=none;top=0;left=0;bottom=0;right=0;align=left;spacingLeft=6;" parent="1" vertex="1">
          <mxGeometry x="490" y="269" width="290" height="30" as="geometry" />
        </mxCell>
        <mxCell id="hlGLuwuzqGQmsSktjfiK-20" value="format_id int not_null" style="shape=partialRectangle;overflow=hidden;connectable=0;fillColor=none;top=0;left=0;bottom=0;right=0;align=left;spacingLeft=6;" parent="1" vertex="1">
          <mxGeometry x="490" y="215" width="290" height="30" as="geometry" />
        </mxCell>
        <mxCell id="hlGLuwuzqGQmsSktjfiK-21" value="materias" style="shape=table;startSize=30;container=1;collapsible=1;childLayout=tableLayout;fixedRows=1;rowLines=0;fontStyle=1;align=center;resizeLast=1;" parent="1" vertex="1">
          <mxGeometry x="40" y="340" width="320" height="100" as="geometry">
            <mxRectangle x="120" y="120" width="100" height="30" as="alternateBounds" />
          </mxGeometry>
        </mxCell>
        <mxCell id="hlGLuwuzqGQmsSktjfiK-22" value="" style="shape=partialRectangle;collapsible=0;dropTarget=0;pointerEvents=0;fillColor=none;points=[[0,0.5],[1,0.5]];portConstraint=eastwest;top=0;left=0;right=0;bottom=1;" parent="hlGLuwuzqGQmsSktjfiK-21" vertex="1">
          <mxGeometry y="30" width="320" height="30" as="geometry" />
        </mxCell>
        <mxCell id="hlGLuwuzqGQmsSktjfiK-23" value="PK" style="shape=partialRectangle;overflow=hidden;connectable=0;fillColor=none;top=0;left=0;bottom=0;right=0;fontStyle=1;" parent="hlGLuwuzqGQmsSktjfiK-22" vertex="1">
          <mxGeometry width="30" height="30" as="geometry" />
        </mxCell>
        <mxCell id="hlGLuwuzqGQmsSktjfiK-24" value="materia_id int NOT NULL" style="shape=partialRectangle;overflow=hidden;connectable=0;fillColor=none;top=0;left=0;bottom=0;right=0;align=left;spacingLeft=6;fontStyle=5;" parent="hlGLuwuzqGQmsSktjfiK-22" vertex="1">
          <mxGeometry x="30" width="290" height="30" as="geometry" />
        </mxCell>
        <mxCell id="hlGLuwuzqGQmsSktjfiK-25" value="" style="shape=partialRectangle;collapsible=0;dropTarget=0;pointerEvents=0;fillColor=none;points=[[0,0.5],[1,0.5]];portConstraint=eastwest;top=0;left=0;right=0;bottom=0;" parent="hlGLuwuzqGQmsSktjfiK-21" vertex="1">
          <mxGeometry y="60" width="320" height="30" as="geometry" />
        </mxCell>
        <mxCell id="hlGLuwuzqGQmsSktjfiK-26" value="" style="shape=partialRectangle;overflow=hidden;connectable=0;fillColor=none;top=0;left=0;bottom=0;right=0;" parent="hlGLuwuzqGQmsSktjfiK-25" vertex="1">
          <mxGeometry width="30" height="30" as="geometry" />
        </mxCell>
        <mxCell id="hlGLuwuzqGQmsSktjfiK-27" value="" style="shape=partialRectangle;overflow=hidden;connectable=0;fillColor=none;top=0;left=0;bottom=0;right=0;align=left;spacingLeft=6;" parent="hlGLuwuzqGQmsSktjfiK-25" vertex="1">
          <mxGeometry x="30" width="290" height="30" as="geometry" />
        </mxCell>
        <mxCell id="hlGLuwuzqGQmsSktjfiK-28" value="materia_id int NOT NULL" style="shape=partialRectangle;overflow=hidden;connectable=0;fillColor=none;top=0;left=0;bottom=0;right=0;align=left;spacingLeft=6;" parent="1" vertex="1">
          <mxGeometry x="490" y="548" width="290" height="30" as="geometry" />
        </mxCell>
        <mxCell id="hlGLuwuzqGQmsSktjfiK-29" value="FK" style="text;html=1;align=center;verticalAlign=middle;resizable=0;points=[];autosize=1;strokeColor=none;" parent="1" vertex="1">
          <mxGeometry x="460" y="554" width="30" height="20" as="geometry" />
        </mxCell>
        <mxCell id="hlGLuwuzqGQmsSktjfiK-30" value="materia_id int NOT NULL" style="shape=partialRectangle;overflow=hidden;connectable=0;fillColor=none;top=0;left=0;bottom=0;right=0;align=left;spacingLeft=6;" parent="1" vertex="1">
          <mxGeometry x="490" y="301" width="290" height="30" as="geometry" />
        </mxCell>
        <mxCell id="hlGLuwuzqGQmsSktjfiK-31" value="FK" style="text;html=1;align=center;verticalAlign=middle;resizable=0;points=[];autosize=1;strokeColor=none;" parent="1" vertex="1">
          <mxGeometry x="460" y="307" width="30" height="20" as="geometry" />
        </mxCell>
        <mxCell id="hlGLuwuzqGQmsSktjfiK-32" style="edgeStyle=orthogonalEdgeStyle;rounded=0;orthogonalLoop=1;jettySize=auto;html=1;exitX=1;exitY=0.5;exitDx=0;exitDy=0;entryX=0;entryY=0.35;entryDx=0;entryDy=0;entryPerimeter=0;" parent="1" source="hlGLuwuzqGQmsSktjfiK-22" target="hlGLuwuzqGQmsSktjfiK-31" edge="1">
          <mxGeometry relative="1" as="geometry" />
        </mxCell>
        <mxCell id="hlGLuwuzqGQmsSktjfiK-33" style="edgeStyle=orthogonalEdgeStyle;rounded=0;orthogonalLoop=1;jettySize=auto;html=1;exitX=1;exitY=0.5;exitDx=0;exitDy=0;entryX=-0.033;entryY=0.55;entryDx=0;entryDy=0;entryPerimeter=0;" parent="1" source="hlGLuwuzqGQmsSktjfiK-22" target="hlGLuwuzqGQmsSktjfiK-29" edge="1">
          <mxGeometry relative="1" as="geometry" />
        </mxCell>
        <mxCell id="R3ozqUevTF7wbkg006Hf-2" value="data_validade date NOT NULL *" style="shape=partialRectangle;overflow=hidden;connectable=0;fillColor=none;top=0;left=0;bottom=0;right=0;align=left;spacingLeft=6;" parent="1" vertex="1">
          <mxGeometry x="492" y="578" width="290" height="30" as="geometry" />
        </mxCell>
        <mxCell id="R3ozqUevTF7wbkg006Hf-3" value="*Apagar as vagas após vencimento" style="text;html=1;strokeColor=none;fillColor=none;align=center;verticalAlign=middle;whiteSpace=wrap;rounded=0;" parent="1" vertex="1">
          <mxGeometry x="492" y="640" width="220" height="20" as="geometry" />
        </mxCell>
        <mxCell id="rCnXIu9rss3aTeOQ9NVy-1" value="materia_titulo var_char NOT NULL" style="shape=partialRectangle;overflow=hidden;connectable=0;fillColor=none;top=0;left=0;bottom=0;right=0;align=left;spacingLeft=6;" parent="1" vertex="1">
          <mxGeometry x="70" y="405" width="290" height="30" as="geometry" />
        </mxCell>
      </root>
    </mxGraphModel>
  </diagram>
  <diagram id="5HQZHZXI6CJOZLei4cRY" name="Use Case">
    <mxGraphModel dx="981" dy="512" grid="1" gridSize="10" guides="1" tooltips="1" connect="1" arrows="1" fold="1" page="1" pageScale="1" pageWidth="850" pageHeight="1100" math="0" shadow="0">
      <root>
        <mxCell id="19ek_G5kQp1LX_UoxI3b-0" />
        <mxCell id="19ek_G5kQp1LX_UoxI3b-1" parent="19ek_G5kQp1LX_UoxI3b-0" />
        <mxCell id="v95JeKkRksGh9sBzTp4K-0" value="" style="rounded=1;whiteSpace=wrap;html=1;" parent="19ek_G5kQp1LX_UoxI3b-1" vertex="1">
          <mxGeometry x="230" y="160" width="210" height="390" as="geometry" />
        </mxCell>
        <mxCell id="DesbnE-GQGL-AsB6o-nn-5" style="edgeStyle=orthogonalEdgeStyle;rounded=0;orthogonalLoop=1;jettySize=auto;html=1;entryX=1;entryY=0.5;entryDx=0;entryDy=0;" edge="1" parent="19ek_G5kQp1LX_UoxI3b-1" source="v95JeKkRksGh9sBzTp4K-1" target="v95JeKkRksGh9sBzTp4K-8">
          <mxGeometry relative="1" as="geometry" />
        </mxCell>
        <mxCell id="v95JeKkRksGh9sBzTp4K-1" value="&lt;div&gt;candidato&lt;/div&gt;" style="shape=umlActor;verticalLabelPosition=bottom;verticalAlign=top;html=1;outlineConnect=0;" parent="19ek_G5kQp1LX_UoxI3b-1" vertex="1">
          <mxGeometry x="550" y="230" width="30" height="60" as="geometry" />
        </mxCell>
        <mxCell id="DesbnE-GQGL-AsB6o-nn-7" style="edgeStyle=orthogonalEdgeStyle;rounded=0;orthogonalLoop=1;jettySize=auto;html=1;entryX=0.5;entryY=1;entryDx=0;entryDy=0;" edge="1" parent="19ek_G5kQp1LX_UoxI3b-1" source="v95JeKkRksGh9sBzTp4K-3" target="v95JeKkRksGh9sBzTp4K-8">
          <mxGeometry relative="1" as="geometry" />
        </mxCell>
        <mxCell id="v95JeKkRksGh9sBzTp4K-3" value="/" style="ellipse;whiteSpace=wrap;html=1;" parent="19ek_G5kQp1LX_UoxI3b-1" vertex="1">
          <mxGeometry x="275.5" y="340" width="120" height="60" as="geometry" />
        </mxCell>
        <mxCell id="v95JeKkRksGh9sBzTp4K-6" value="TecBusca" style="text;html=1;strokeColor=none;fillColor=none;align=center;verticalAlign=middle;whiteSpace=wrap;rounded=0;" parent="19ek_G5kQp1LX_UoxI3b-1" vertex="1">
          <mxGeometry x="290" y="180" width="90" height="20" as="geometry" />
        </mxCell>
        <mxCell id="v95JeKkRksGh9sBzTp4K-7" value="&lt;div&gt;Visualizar&lt;/div&gt;&lt;div&gt;vagas&lt;/div&gt;" style="text;html=1;strokeColor=none;fillColor=none;align=center;verticalAlign=middle;whiteSpace=wrap;rounded=0;" parent="19ek_G5kQp1LX_UoxI3b-1" vertex="1">
          <mxGeometry x="292.5" y="356" width="90" height="30" as="geometry" />
        </mxCell>
        <mxCell id="v95JeKkRksGh9sBzTp4K-8" value="" style="ellipse;whiteSpace=wrap;html=1;" parent="19ek_G5kQp1LX_UoxI3b-1" vertex="1">
          <mxGeometry x="275" y="230" width="120" height="60" as="geometry" />
        </mxCell>
        <mxCell id="v95JeKkRksGh9sBzTp4K-9" value="Pesquisar vagas" style="text;html=1;strokeColor=none;fillColor=none;align=center;verticalAlign=middle;whiteSpace=wrap;rounded=0;" parent="19ek_G5kQp1LX_UoxI3b-1" vertex="1">
          <mxGeometry x="290" y="240" width="90" height="40" as="geometry" />
        </mxCell>
        <mxCell id="DesbnE-GQGL-AsB6o-nn-8" style="edgeStyle=orthogonalEdgeStyle;rounded=0;orthogonalLoop=1;jettySize=auto;html=1;entryX=0;entryY=0.5;entryDx=0;entryDy=0;" edge="1" parent="19ek_G5kQp1LX_UoxI3b-1" source="DesbnE-GQGL-AsB6o-nn-0" target="DesbnE-GQGL-AsB6o-nn-1">
          <mxGeometry relative="1" as="geometry" />
        </mxCell>
        <mxCell id="DesbnE-GQGL-AsB6o-nn-0" value="Sistema" style="shape=umlActor;verticalLabelPosition=bottom;verticalAlign=top;html=1;outlineConnect=0;" vertex="1" parent="19ek_G5kQp1LX_UoxI3b-1">
          <mxGeometry x="50" y="450" width="30" height="60" as="geometry" />
        </mxCell>
        <mxCell id="DesbnE-GQGL-AsB6o-nn-1" value="" style="ellipse;whiteSpace=wrap;html=1;" vertex="1" parent="19ek_G5kQp1LX_UoxI3b-1">
          <mxGeometry x="280" y="450" width="115" height="60" as="geometry" />
        </mxCell>
        <mxCell id="DesbnE-GQGL-AsB6o-nn-2" value="Cadastrar vagas" style="text;html=1;strokeColor=none;fillColor=none;align=center;verticalAlign=middle;whiteSpace=wrap;rounded=0;" vertex="1" parent="19ek_G5kQp1LX_UoxI3b-1">
          <mxGeometry x="290" y="460" width="90" height="40" as="geometry" />
        </mxCell>
      </root>
    </mxGraphModel>
  </diagram>
  <diagram id="tID1n13CGh0lt_Elbe-U" name="Diagrama de atividades">
    <mxGraphModel dx="1822" dy="791" grid="1" gridSize="10" guides="1" tooltips="1" connect="1" arrows="1" fold="1" page="0" pageScale="1" pageWidth="850" pageHeight="1100" math="0" shadow="0">
      <root>
        <mxCell id="aurPjL6bR6JKtBZm8IZp-0" />
        <mxCell id="aurPjL6bR6JKtBZm8IZp-1" parent="aurPjL6bR6JKtBZm8IZp-0" />
        <mxCell id="aurPjL6bR6JKtBZm8IZp-7" value="" style="shape=table;startSize=0;container=1;collapsible=0;childLayout=tableLayout;" parent="aurPjL6bR6JKtBZm8IZp-1" vertex="1">
          <mxGeometry x="-80" y="102" width="1170" height="660" as="geometry" />
        </mxCell>
        <mxCell id="aurPjL6bR6JKtBZm8IZp-8" value="" style="shape=partialRectangle;collapsible=0;dropTarget=0;pointerEvents=0;fillColor=none;top=0;left=0;bottom=0;right=0;points=[[0,0.5],[1,0.5]];portConstraint=eastwest;" parent="aurPjL6bR6JKtBZm8IZp-7" vertex="1">
          <mxGeometry width="1170" height="106" as="geometry" />
        </mxCell>
        <mxCell id="aurPjL6bR6JKtBZm8IZp-9" value="&lt;div&gt;&lt;br&gt;&lt;/div&gt;&lt;div&gt;&lt;br&gt;&lt;/div&gt;" style="shape=partialRectangle;html=1;whiteSpace=wrap;connectable=0;overflow=hidden;fillColor=none;top=0;left=0;bottom=0;right=0;pointerEvents=1;" parent="aurPjL6bR6JKtBZm8IZp-8" vertex="1">
          <mxGeometry width="390" height="106" as="geometry" />
        </mxCell>
        <mxCell id="aurPjL6bR6JKtBZm8IZp-10" value="" style="shape=partialRectangle;html=1;whiteSpace=wrap;connectable=0;overflow=hidden;fillColor=none;top=0;left=0;bottom=0;right=0;pointerEvents=1;" parent="aurPjL6bR6JKtBZm8IZp-8" vertex="1">
          <mxGeometry x="390" width="390" height="106" as="geometry" />
        </mxCell>
        <mxCell id="aurPjL6bR6JKtBZm8IZp-11" value="" style="shape=partialRectangle;html=1;whiteSpace=wrap;connectable=0;overflow=hidden;fillColor=none;top=0;left=0;bottom=0;right=0;pointerEvents=1;" parent="aurPjL6bR6JKtBZm8IZp-8" vertex="1">
          <mxGeometry x="780" width="390" height="106" as="geometry" />
        </mxCell>
        <mxCell id="aurPjL6bR6JKtBZm8IZp-12" value="" style="shape=partialRectangle;collapsible=0;dropTarget=0;pointerEvents=0;fillColor=none;top=0;left=0;bottom=0;right=0;points=[[0,0.5],[1,0.5]];portConstraint=eastwest;" parent="aurPjL6bR6JKtBZm8IZp-7" vertex="1">
          <mxGeometry y="106" width="1170" height="554" as="geometry" />
        </mxCell>
        <mxCell id="aurPjL6bR6JKtBZm8IZp-13" value="" style="shape=partialRectangle;html=1;whiteSpace=wrap;connectable=0;overflow=hidden;fillColor=none;top=0;left=0;bottom=0;right=0;pointerEvents=1;" parent="aurPjL6bR6JKtBZm8IZp-12" vertex="1">
          <mxGeometry width="390" height="554" as="geometry" />
        </mxCell>
        <mxCell id="aurPjL6bR6JKtBZm8IZp-14" value="" style="shape=partialRectangle;html=1;whiteSpace=wrap;connectable=0;overflow=hidden;fillColor=none;top=0;left=0;bottom=0;right=0;pointerEvents=1;" parent="aurPjL6bR6JKtBZm8IZp-12" vertex="1">
          <mxGeometry x="390" width="390" height="554" as="geometry" />
        </mxCell>
        <mxCell id="aurPjL6bR6JKtBZm8IZp-15" value="" style="shape=partialRectangle;html=1;whiteSpace=wrap;connectable=0;overflow=hidden;fillColor=none;top=0;left=0;bottom=0;right=0;pointerEvents=1;" parent="aurPjL6bR6JKtBZm8IZp-12" vertex="1">
          <mxGeometry x="780" width="390" height="554" as="geometry" />
        </mxCell>
        <mxCell id="lxFaHfnZ8NVm4HfucrU9-0" value="Scrapper" style="text;html=1;strokeColor=none;fillColor=none;align=center;verticalAlign=middle;whiteSpace=wrap;rounded=0;fontSize=14;" parent="aurPjL6bR6JKtBZm8IZp-1" vertex="1">
          <mxGeometry x="-80" y="100" width="390" height="110" as="geometry" />
        </mxCell>
        <mxCell id="lxFaHfnZ8NVm4HfucrU9-1" value="Naive Classificator" style="text;html=1;strokeColor=none;fillColor=none;align=center;verticalAlign=middle;whiteSpace=wrap;rounded=0;fontSize=14;" parent="aurPjL6bR6JKtBZm8IZp-1" vertex="1">
          <mxGeometry x="310" y="100" width="390" height="110" as="geometry" />
        </mxCell>
        <mxCell id="lxFaHfnZ8NVm4HfucrU9-2" value="Site (Human interface)" style="text;html=1;strokeColor=none;fillColor=none;align=center;verticalAlign=middle;whiteSpace=wrap;rounded=0;fontSize=14;" parent="aurPjL6bR6JKtBZm8IZp-1" vertex="1">
          <mxGeometry x="700" y="100" width="390" height="110" as="geometry" />
        </mxCell>
        <mxCell id="vH5uTCs458pLMklBIXI0-4" style="edgeStyle=orthogonalEdgeStyle;rounded=0;orthogonalLoop=1;jettySize=auto;html=1;exitX=1;exitY=0.5;exitDx=0;exitDy=0;entryX=0;entryY=0.5;entryDx=0;entryDy=0;fontSize=14;" parent="aurPjL6bR6JKtBZm8IZp-1" source="vH5uTCs458pLMklBIXI0-0" target="vH5uTCs458pLMklBIXI0-1" edge="1">
          <mxGeometry relative="1" as="geometry" />
        </mxCell>
        <mxCell id="vH5uTCs458pLMklBIXI0-33" style="edgeStyle=orthogonalEdgeStyle;rounded=0;orthogonalLoop=1;jettySize=auto;html=1;entryX=0;entryY=0.5;entryDx=0;entryDy=0;fontSize=14;" parent="aurPjL6bR6JKtBZm8IZp-1" source="vH5uTCs458pLMklBIXI0-0" target="vH5uTCs458pLMklBIXI0-20" edge="1">
          <mxGeometry relative="1" as="geometry" />
        </mxCell>
        <mxCell id="vH5uTCs458pLMklBIXI0-0" value="" style="ellipse;whiteSpace=wrap;html=1;fontSize=14;fillColor=#000000;" parent="aurPjL6bR6JKtBZm8IZp-1" vertex="1">
          <mxGeometry x="-60" y="365" width="10" height="10" as="geometry" />
        </mxCell>
        <mxCell id="vH5uTCs458pLMklBIXI0-34" style="edgeStyle=orthogonalEdgeStyle;rounded=0;orthogonalLoop=1;jettySize=auto;html=1;entryX=0;entryY=0.5;entryDx=0;entryDy=0;fontSize=14;" parent="aurPjL6bR6JKtBZm8IZp-1" source="vH5uTCs458pLMklBIXI0-1" target="vH5uTCs458pLMklBIXI0-6" edge="1">
          <mxGeometry relative="1" as="geometry" />
        </mxCell>
        <mxCell id="vH5uTCs458pLMklBIXI0-1" value="Coleta dados públicos sobre vagas de emprego" style="rounded=1;whiteSpace=wrap;html=1;fontSize=14;fillColor=#FFFFFF;" parent="aurPjL6bR6JKtBZm8IZp-1" vertex="1">
          <mxGeometry y="340" width="170" height="60" as="geometry" />
        </mxCell>
        <mxCell id="vH5uTCs458pLMklBIXI0-25" style="edgeStyle=orthogonalEdgeStyle;rounded=0;orthogonalLoop=1;jettySize=auto;html=1;entryX=0.5;entryY=0;entryDx=0;entryDy=0;fontSize=14;" parent="aurPjL6bR6JKtBZm8IZp-1" source="vH5uTCs458pLMklBIXI0-6" target="vH5uTCs458pLMklBIXI0-8" edge="1">
          <mxGeometry relative="1" as="geometry" />
        </mxCell>
        <mxCell id="vH5uTCs458pLMklBIXI0-6" value="Cria modelo &lt;span&gt;matemático&lt;/span&gt; de probabilidade das vagas e palavras chaves" style="rounded=1;whiteSpace=wrap;html=1;fontSize=14;fillColor=#FFFFFF;" parent="aurPjL6bR6JKtBZm8IZp-1" vertex="1">
          <mxGeometry x="420" y="240" width="200" height="119" as="geometry" />
        </mxCell>
        <mxCell id="vH5uTCs458pLMklBIXI0-38" style="edgeStyle=orthogonalEdgeStyle;rounded=0;orthogonalLoop=1;jettySize=auto;html=1;entryX=0.5;entryY=0;entryDx=0;entryDy=0;fontSize=14;" parent="aurPjL6bR6JKtBZm8IZp-1" source="vH5uTCs458pLMklBIXI0-8" target="vH5uTCs458pLMklBIXI0-10" edge="1">
          <mxGeometry relative="1" as="geometry" />
        </mxCell>
        <mxCell id="vH5uTCs458pLMklBIXI0-8" value="Adiciona o curso mais &lt;span&gt;&lt;span&gt;provável&lt;/span&gt;&lt;/span&gt; para a vaga" style="rounded=1;whiteSpace=wrap;html=1;fontSize=14;fillColor=#FFFFFF;" parent="aurPjL6bR6JKtBZm8IZp-1" vertex="1">
          <mxGeometry x="435" y="420" width="170" height="60" as="geometry" />
        </mxCell>
        <mxCell id="vH5uTCs458pLMklBIXI0-10" value="Armazena vagas no banco de dados" style="rounded=1;whiteSpace=wrap;html=1;fontSize=14;fillColor=#FFFFFF;" parent="aurPjL6bR6JKtBZm8IZp-1" vertex="1">
          <mxGeometry x="427.5" y="550" width="185" height="63.5" as="geometry" />
        </mxCell>
        <mxCell id="vH5uTCs458pLMklBIXI0-35" style="edgeStyle=orthogonalEdgeStyle;rounded=0;orthogonalLoop=1;jettySize=auto;html=1;entryX=0;entryY=0.5;entryDx=0;entryDy=0;fontSize=14;" parent="aurPjL6bR6JKtBZm8IZp-1" source="vH5uTCs458pLMklBIXI0-20" target="vH5uTCs458pLMklBIXI0-6" edge="1">
          <mxGeometry relative="1" as="geometry" />
        </mxCell>
        <mxCell id="vH5uTCs458pLMklBIXI0-20" value="Coleta dados públicos sobre vagas de emprego classificadas com os cursos da FATEC Indaiatuba" style="rounded=1;whiteSpace=wrap;html=1;fontSize=14;fillColor=#FFFFFF;" parent="aurPjL6bR6JKtBZm8IZp-1" vertex="1">
          <mxGeometry y="425" width="170" height="140" as="geometry" />
        </mxCell>
        <mxCell id="vH5uTCs458pLMklBIXI0-39" style="edgeStyle=orthogonalEdgeStyle;rounded=0;orthogonalLoop=1;jettySize=auto;html=1;entryX=1;entryY=0.5;entryDx=0;entryDy=0;fontSize=14;" parent="aurPjL6bR6JKtBZm8IZp-1" source="vH5uTCs458pLMklBIXI0-29" target="vH5uTCs458pLMklBIXI0-10" edge="1">
          <mxGeometry relative="1" as="geometry">
            <Array as="points">
              <mxPoint x="710" y="310" />
              <mxPoint x="710" y="582" />
            </Array>
          </mxGeometry>
        </mxCell>
        <mxCell id="vH5uTCs458pLMklBIXI0-29" value="Apresenta vagas classificadas" style="rounded=1;whiteSpace=wrap;html=1;fontSize=14;fillColor=#FFFFFF;" parent="aurPjL6bR6JKtBZm8IZp-1" vertex="1">
          <mxGeometry x="790" y="280" width="230" height="60" as="geometry" />
        </mxCell>
        <mxCell id="vH5uTCs458pLMklBIXI0-41" style="edgeStyle=orthogonalEdgeStyle;rounded=0;orthogonalLoop=1;jettySize=auto;html=1;entryX=1;entryY=0.5;entryDx=0;entryDy=0;fontSize=14;" parent="aurPjL6bR6JKtBZm8IZp-1" source="vH5uTCs458pLMklBIXI0-40" target="vH5uTCs458pLMklBIXI0-10" edge="1">
          <mxGeometry relative="1" as="geometry">
            <Array as="points">
              <mxPoint x="710" y="420" />
              <mxPoint x="710" y="582" />
            </Array>
          </mxGeometry>
        </mxCell>
        <mxCell id="vH5uTCs458pLMklBIXI0-40" value="Pesquisa vagas e palavras chave" style="rounded=1;whiteSpace=wrap;html=1;fontSize=14;fillColor=#FFFFFF;" parent="aurPjL6bR6JKtBZm8IZp-1" vertex="1">
          <mxGeometry x="790" y="390" width="230" height="60" as="geometry" />
        </mxCell>
      </root>
    </mxGraphModel>
  </diagram>
  <diagram id="aisuCKKcL6ie5D2Abgce" name="Diagrama de atividades 2">
    <mxGraphModel dx="1422" dy="791" grid="1" gridSize="10" guides="1" tooltips="1" connect="1" arrows="1" fold="1" page="1" pageScale="1" pageWidth="850" pageHeight="1100" math="0" shadow="0">
      <root>
        <mxCell id="ZbOP_SiQyYZVw6nDdga3-0" />
        <mxCell id="ZbOP_SiQyYZVw6nDdga3-1" parent="ZbOP_SiQyYZVw6nDdga3-0" />
        <mxCell id="8DEVtjZ_VwXqCxVmljF6-0" style="edgeStyle=orthogonalEdgeStyle;rounded=0;orthogonalLoop=1;jettySize=auto;html=1;entryX=0;entryY=0.5;entryDx=0;entryDy=0;" edge="1" parent="ZbOP_SiQyYZVw6nDdga3-1" source="ZbOP_SiQyYZVw6nDdga3-2" target="ZbOP_SiQyYZVw6nDdga3-3">
          <mxGeometry relative="1" as="geometry" />
        </mxCell>
        <mxCell id="ZbOP_SiQyYZVw6nDdga3-2" value="" style="ellipse;whiteSpace=wrap;html=1;fillColor=#000000;" vertex="1" parent="ZbOP_SiQyYZVw6nDdga3-1">
          <mxGeometry x="240" y="90" width="20" height="20" as="geometry" />
        </mxCell>
        <mxCell id="S-wmxlLMF9Ut2aDjri9g-1" style="edgeStyle=orthogonalEdgeStyle;rounded=0;orthogonalLoop=1;jettySize=auto;html=1;entryX=0.5;entryY=0;entryDx=0;entryDy=0;" edge="1" parent="ZbOP_SiQyYZVw6nDdga3-1" source="ZbOP_SiQyYZVw6nDdga3-3" target="S-wmxlLMF9Ut2aDjri9g-0">
          <mxGeometry relative="1" as="geometry" />
        </mxCell>
        <mxCell id="ZbOP_SiQyYZVw6nDdga3-3" value="Coleta dados públicos sobre vagas de emprego" style="rounded=1;whiteSpace=wrap;html=1;gradientColor=none;fillColor=#FFFFFF;" vertex="1" parent="ZbOP_SiQyYZVw6nDdga3-1">
          <mxGeometry x="340" y="60" width="170" height="80" as="geometry" />
        </mxCell>
        <mxCell id="x2gcA0a4yG7n2q50RaGc-1" value="" style="edgeStyle=orthogonalEdgeStyle;rounded=0;orthogonalLoop=1;jettySize=auto;html=1;" edge="1" parent="ZbOP_SiQyYZVw6nDdga3-1" source="S-wmxlLMF9Ut2aDjri9g-0" target="x2gcA0a4yG7n2q50RaGc-0">
          <mxGeometry relative="1" as="geometry" />
        </mxCell>
        <mxCell id="S-wmxlLMF9Ut2aDjri9g-0" value="Coleta dados públicos sobre vagas de emprego classificadas com os cursos da FATEC Indaiatuba" style="rounded=1;whiteSpace=wrap;html=1;fontSize=14;fillColor=#FFFFFF;" vertex="1" parent="ZbOP_SiQyYZVw6nDdga3-1">
          <mxGeometry x="340" y="190" width="170" height="130" as="geometry" />
        </mxCell>
        <mxCell id="XmwQlb7fUhFF0hy-sNln-1" value="" style="edgeStyle=orthogonalEdgeStyle;rounded=0;orthogonalLoop=1;jettySize=auto;html=1;" edge="1" parent="ZbOP_SiQyYZVw6nDdga3-1" source="x2gcA0a4yG7n2q50RaGc-0" target="XmwQlb7fUhFF0hy-sNln-0">
          <mxGeometry relative="1" as="geometry" />
        </mxCell>
        <mxCell id="x2gcA0a4yG7n2q50RaGc-0" value="Cria modelo &lt;span&gt;matemático&lt;/span&gt; de probabilidade das vagas e palavras chaves" style="rounded=1;whiteSpace=wrap;html=1;fontSize=14;fillColor=#FFFFFF;" vertex="1" parent="ZbOP_SiQyYZVw6nDdga3-1">
          <mxGeometry x="325" y="378" width="200" height="119" as="geometry" />
        </mxCell>
        <mxCell id="lp4mQN0Nt_HTfP5l72bY-1" value="" style="edgeStyle=orthogonalEdgeStyle;rounded=0;orthogonalLoop=1;jettySize=auto;html=1;" edge="1" parent="ZbOP_SiQyYZVw6nDdga3-1" source="XmwQlb7fUhFF0hy-sNln-0" target="lp4mQN0Nt_HTfP5l72bY-0">
          <mxGeometry relative="1" as="geometry" />
        </mxCell>
        <mxCell id="XmwQlb7fUhFF0hy-sNln-0" value="Adiciona o curso mais &lt;span&gt;&lt;span&gt;provável&lt;/span&gt;&lt;/span&gt; para a vaga" style="rounded=1;whiteSpace=wrap;html=1;fontSize=14;fillColor=#FFFFFF;" vertex="1" parent="ZbOP_SiQyYZVw6nDdga3-1">
          <mxGeometry x="340" y="545" width="170" height="60" as="geometry" />
        </mxCell>
        <mxCell id="lp4mQN0Nt_HTfP5l72bY-0" value="Armazena vagas no banco de dados" style="rounded=1;whiteSpace=wrap;html=1;fontSize=14;fillColor=#FFFFFF;" vertex="1" parent="ZbOP_SiQyYZVw6nDdga3-1">
          <mxGeometry x="333" y="680" width="185" height="63.5" as="geometry" />
        </mxCell>
      </root>
    </mxGraphModel>
  </diagram>
</mxfile>
